<mxfile host="app.diagrams.net" modified="2023-08-22T07:00:29.893Z" agent="Mozilla/5.0 (Windows NT 10.0; Win64; x64) AppleWebKit/537.36 (KHTML, like Gecko) Chrome/115.0.0.0 Safari/537.36 OPR/101.0.0.0" version="21.6.8" etag="GgESTXVTsxXzBKSHn7yk" type="github">
  <diagram name="Page-1" id="0y15OAwdEvQ6BRsmeDMm">
    <mxGraphModel>
      <root>
        <mxCell id="0" />
        <mxCell id="1" parent="0" />
      </root>
    </mxGraphModel>
  </diagram>
</mxfile>
